<svg data-v-cd28a988="" xmlns="http://www.w3.org/2000/svg" width="54" height="54" viewBox="0 0 24 24">
  <path data-v-cd28a988="" d="M18.71,10.35,17.9,8.41l2.33-2.32L19.06,4.92h0L17.9,3.76,15.57,6.08l-1.93-.79V2h-3.3V5.29L8.41,6.1,6.09,3.77,4.92,4.94h0L3.76,6.1,6.08,8.42l-.79,1.94H2V12H2v1.64H5.29l.81,1.94L3.77,17.91l1.17,1.17h0L6.1,20.24l2.33-2.32,1.93.79V22h3.3V18.71l1.93-.81,2.32,2.33,1.17-1.17h0l1.16-1.16-2.32-2.32.79-1.94H22V12h0V10.35ZM12,14.56A2.56,2.56,0,1,1,14.56,12,2.55,2.55,0,0,1,12,14.56Z" stroke="#FA8072" stroke-width="1" stroke-linejoin="round" fill="none">
  </path>
</svg>